<?xml version="1.0" standalone="no"?><!DOCTYPE svg PUBLIC "-//W3C//DTD SVG 1.1//EN" "http://www.w3.org/Graphics/SVG/1.1/DTD/svg11.dtd"><svg t="1722115045324" class="icon" viewBox="0 0 1024 1024" version="1.1" xmlns="http://www.w3.org/2000/svg" p-id="21009" width="48" height="48" xmlns:xlink="http://www.w3.org/1999/xlink"><path d="M523.797247 972.591433H63.120039V51.294011h818.994368v409.44019a25.533019 25.533019 0 0 0 12.76651 22.170411 25.647005 25.647005 0 0 0 25.590012 0 25.590012 25.590012 0 0 0 12.823502-22.170411V25.703999a25.590012 25.590012 0 0 0-7.523121-18.123884 25.590012 25.590012 0 0 0-18.066891-7.523122H37.758001a25.817985 25.817985 0 0 0-18.123884 7.523122 25.533019 25.533019 0 0 0-7.466128 18.123884v972.534439a25.647005 25.647005 0 0 0 7.466128 18.06689 25.760992 25.760992 0 0 0 18.123884 7.466129h486.26722a25.590012 25.590012 0 0 0 25.590012-25.533019 25.590012 25.590012 0 0 0-25.590012-25.647005z" fill="#2B3642" p-id="21010"></path><path d="M742.822672 623.564188a118.888118 118.888118 0 0 0-118.717137 118.774131 118.831124 118.831124 0 0 0 118.717137 118.717138 118.888118 118.888118 0 0 0 118.774131-118.717138 118.945111 118.945111 0 0 0-118.774131-118.774131z m0 186.311245a67.651101 67.651101 0 0 1-67.537114-67.537114 67.594107 67.594107 0 0 1 67.537114-67.594107 67.651101 67.651101 0 0 1 67.594107 67.594107 67.651101 67.651101 0 0 1-67.594107 67.537114z m0 0" fill="#2B3642" p-id="21011"></path><path d="M1010.691394 814.491894a25.419032 25.419032 0 0 0-11.854616-15.616177l-47.646436-27.869746a210.875377 210.875377 0 0 0 0.569933-53.231784l46.620556-27.755759a25.419032 25.419032 0 0 0 11.740629-15.730163 25.647005 25.647005 0 0 0-2.849667-19.377737l-56.993345-96.09078a25.760992 25.760992 0 0 0-15.901143-11.740629 25.476025 25.476025 0 0 0-19.491724 3.020647l-42.004095 25.760992a253.050452 253.050452 0 0 0-41.890109-25.134065v-43.884876a25.647005 25.647005 0 0 0-7.466128-18.123883 25.647005 25.647005 0 0 0-18.123884-7.466129h-122.820659a25.760992 25.760992 0 0 0-18.123883 7.466129 25.647005 25.647005 0 0 0-7.466128 18.123883v39.895342a161.975087 161.975087 0 0 0-45.594676 27.698766l-37.786588-22.797339a25.874979 25.874979 0 0 0-19.662704-2.90666 25.760992 25.760992 0 0 0-15.787157 12.082589l-55.511518 96.489733a25.533019 25.533019 0 0 0 9.403902 34.879927l41.548149 24.108185a223.812866 223.812866 0 0 0-1.481827 26.216939 204.036175 204.036175 0 0 0 2.792674 33.74006l-41.662136 24.792105a25.590012 25.590012 0 0 0-11.683635 15.67317 25.362039 25.362039 0 0 0 2.792674 19.377738l56.993345 96.090779a25.533019 25.533019 0 0 0 16.015129 11.797623 25.191059 25.191059 0 0 0 19.662705-3.305614l40.180308-25.476026a138.436835 138.436835 0 0 0 39.325408 23.253285v59.786019a25.533019 25.533019 0 0 0 7.466128 18.06689 25.760992 25.760992 0 0 0 18.123884 7.466129h122.820658a25.647005 25.647005 0 0 0 18.123884-7.466129 25.533019 25.533019 0 0 0 7.466128-18.06689v-64.06052a246.667197 246.667197 0 0 0 38.698481-22.797338l46.734543 28.097719a25.419032 25.419032 0 0 0 19.491724 2.849668 25.760992 25.760992 0 0 0 15.787157-11.854616l56.423412-96.546727a25.590012 25.590012 0 0 0 2.678687-19.377737z m-90.220465 67.708094l-39.895342-23.937205a25.590012 25.590012 0 0 0-30.206473 2.849667 188.932939 188.932939 0 0 1-54.485638 32.429213 25.703999 25.703999 0 0 0-16.300096 23.823219v55.226551h-71.640635v-53.231784a25.533019 25.533019 0 0 0-19.605711-24.849099 100.479267 100.479267 0 0 1-48.159376-27.242819l-4.046528-3.476594a25.533019 25.533019 0 0 0-30.263466-2.05176l-33.797054 21.429498-30.605426-51.294011 35.335874-21.030544a25.590012 25.590012 0 0 0 11.683636-28.496673 159.923326 159.923326 0 0 1-5.186395-39.895341 160.83522 160.83522 0 0 1 3.476595-34.196007 25.590012 25.590012 0 0 0-12.196576-27.584779l-34.822934-20.175645 29.750526-51.749957 31.51732 19.092771a25.590012 25.590012 0 0 0 30.491439-3.020647 124.017519 124.017519 0 0 1 57.335305-34.879928 25.533019 25.533019 0 0 0 19.092771-24.735111v-32.828167h71.697628v34.822934a25.476025 25.476025 0 0 0 15.787157 23.595245 200.730561 200.730561 0 0 1 57.563278 35.1079 25.533019 25.533019 0 0 0 30.8334 3.077641l35.506854-21.771458 30.776406 51.863944-39.553381 23.538251a25.533019 25.533019 0 0 0-11.968603 27.185826 160.32228 160.32228 0 0 1-0.797907 68.392014 25.533019 25.533019 0 0 0 11.968603 27.869746l41.092202 23.994198z m0 0" fill="#2B3642" p-id="21012"></path><path d="M733.532757 230.994027a29.237586 29.237586 0 0 1-29.237586 29.237586H220.706638a29.237586 29.237586 0 0 1-29.066606-29.237586 29.237586 29.237586 0 0 1 29.237586-29.237586h483.588533a29.237586 29.237586 0 0 1 29.237586 29.237586z m0 107.945396a29.237586 29.237586 0 0 1-29.237586 29.237586H220.706638a29.237586 29.237586 0 0 1-29.237586-29.237586 29.237586 29.237586 0 0 1 29.237586-29.237586h483.588533a29.237586 29.237586 0 0 1 29.237586 29.237586z m0 0" fill="#2B3642" p-id="21013"></path></svg>