<?xml version="1.0" standalone="no"?><!DOCTYPE svg PUBLIC "-//W3C//DTD SVG 1.1//EN" "http://www.w3.org/Graphics/SVG/1.1/DTD/svg11.dtd"><svg t="1722113534750" class="icon" viewBox="0 0 1024 1024" version="1.1" xmlns="http://www.w3.org/2000/svg" p-id="12204" xmlns:xlink="http://www.w3.org/1999/xlink" width="32" height="32"><path d="M864 96h-704a128 128 0 0 0-128 128v576a128 128 0 0 0 128 128h704a128 128 0 0 0 128-128v-576a128 128 0 0 0-128-128z m64 704a64 64 0 0 1-64 64h-704a64 64 0 0 1-64-64v-384h832v384z m0-448h-832v-128a64 64 0 0 1 64-64h704a64 64 0 0 1 64 64v128z" fill="" p-id="12205"></path><path d="M224 224H192a32 32 0 0 0 0 64h32a32 32 0 0 0 0-64zM384 224h-32a32 32 0 0 0 0 64H384a32 32 0 0 0 0-64z" fill="" p-id="12206"></path><path d="M288 576m-32 0a32 32 0 1 0 64 0 32 32 0 1 0-64 0Z" fill="" p-id="12207"></path><path d="M416 608h320a32 32 0 0 0 0-64h-320a32 32 0 0 0 0 64z" fill="" p-id="12208"></path><path d="M288 704m-32 0a32 32 0 1 0 64 0 32 32 0 1 0-64 0Z" fill="" p-id="12209"></path><path d="M416 736h320a32 32 0 0 0 0-64h-320a32 32 0 0 0 0 64z" fill="" p-id="12210"></path></svg>