<svg viewBox="0 0 136 136" xmlns:ev="http://www.w3.org/2001/xml-events" height="136" xmlns="http://www.w3.org/2000/svg" xmlns:xlink="http://www.w3.org/1999/xlink" width="136"><defs/><g id="page1" transform="translate(5.5,5.5)"><rect x="0" height="126" y="0" fill="none" width="126"/><path stroke="#4ed7c5" id="shape1" transform="translate(45.629900,46.262600)" fill-rule="nonzero" fill="#e9f8f5" d="M.0,17.4C.0,7.8,7.8,.0,17.4,.0C27.0,.0,34.7,7.8,34.7,17.4C34.7,27.0,27.0,34.7,17.4,34.7C7.8,34.7,.0,27.0,.0,17.4zM3.5,17.4C3.5,9.7,9.7,3.5,17.4,3.5C25.0,3.5,31.2,9.7,31.2,17.4C31.2,25.0,25.0,31.2,17.4,31.2C9.7,31.2,3.5,25.0,3.5,17.4z" stroke-width="1"/><path stroke="#c00000" id="shape2" transform="matrix(-1.000000,0.000000,0.000000,1.000000,52.000000,40.584300)" d="M.0,.0L12.0,.0L12.0,45.7L.0,45.7" fill="none" stroke-width="4"/><path stroke="#c00000" id="shape3" transform="translate(73.779400,40.584300)" d="M.0,.0L12.0,.0L12.0,45.7L.0,45.7" fill="none" stroke-width="4"/></g></svg>