<?xml version="1.0" standalone="no"?><!DOCTYPE svg PUBLIC "-//W3C//DTD SVG 1.1//EN" "http://www.w3.org/Graphics/SVG/1.1/DTD/svg11.dtd"><svg t="1725387450157" class="icon" viewBox="0 0 1024 1024" version="1.1" xmlns="http://www.w3.org/2000/svg" p-id="28984" width="48" height="48" xmlns:xlink="http://www.w3.org/1999/xlink"><path d="M881.777778 910.222222H142.222222a28.444444 28.444444 0 0 1-28.444444-28.444444v-127.160889a28.444444 28.444444 0 0 1 28.444444-28.444445h739.555556a28.444444 28.444444 0 0 1 28.444444 28.444445V881.777778a28.444444 28.444444 0 0 1-28.444444 28.444444z m-231.936-107.363555v61.354666h153.159111v-61.354666H649.841778zM881.777778 618.808889H142.222222a28.444444 28.444444 0 0 1-28.444444-28.444445v-127.160888a28.444444 28.444444 0 0 1 28.444444-28.444445h739.555556a28.444444 28.444444 0 0 1 28.444444 28.444445v127.160888a28.444444 28.444444 0 0 1-28.444444 28.444445z m-231.936-107.363556v61.354667h153.159111v-61.354667H649.841778zM881.777778 312.064H142.222222a28.444444 28.444444 0 0 1-28.444444-28.444444V156.444444a28.444444 28.444444 0 0 1 28.444444-28.444444h739.555556a28.444444 28.444444 0 0 1 28.444444 28.444444v127.160889a28.458667 28.458667 0 0 1-28.444444 28.458667z m-231.936-107.363556v61.354667h153.159111v-61.354667H649.841778z" fill="#323233" p-id="28985"></path></svg>