<?xml version="1.0" standalone="no"?><!DOCTYPE svg PUBLIC "-//W3C//DTD SVG 1.1//EN" "http://www.w3.org/Graphics/SVG/1.1/DTD/svg11.dtd"><svg t="1722114360390" class="icon" viewBox="0 0 1024 1024" version="1.1" xmlns="http://www.w3.org/2000/svg" p-id="13057" width="48" height="48" xmlns:xlink="http://www.w3.org/1999/xlink"><path d="M510.762311 380.38031c33.776268 0 61.164035-28.148084 61.164035-62.880119 0-34.724873-27.38879-62.877049-61.164035-62.877049-33.778314 0-61.166081 28.1532-61.166081 62.877049C449.595206 352.232227 476.983997 380.38031 510.762311 380.38031z" fill="#272636" p-id="13058"></path><path d="M563.219033 793.035698 458.302519 793.035698 464.700229 442.399829 556.821323 442.399829Z" fill="#272636" p-id="13059"></path><path d="M510.762311 114.555036c53.646827 0 105.662505 10.495028 154.602124 31.194466 47.295166 20.004613 89.780793 48.653093 126.277008 85.150332 36.498262 36.496216 65.145719 78.982866 85.151355 126.278031 20.698414 48.939619 31.193443 100.954273 31.193443 154.602124s-10.496052 105.663528-31.193443 154.603147c-20.005636 47.295166-48.653093 89.780793-85.151355 126.277008-36.496216 36.496216-78.982866 65.145719-126.277008 85.151355-48.939619 20.697391-100.955296 31.19242-154.602124 31.19242-53.647851 0-105.663528-10.496052-154.603147-31.19242-47.295166-20.005636-89.781816-48.65514-126.278031-85.151355-36.498262-36.496216-65.145719-78.982866-85.150332-126.277008-20.698414-48.939619-31.194466-100.955296-31.194466-154.603147s10.496052-105.662505 31.194466-154.602124c20.004613-47.295166 48.653093-89.781816 85.150332-126.278031 36.496216-36.498262 78.982866-65.145719 126.278031-85.150332C405.098783 125.049041 457.11446 114.555036 510.762311 114.555036M510.762311 63.373353c-247.648286 0-448.406636 200.759373-448.406636 448.406636 0 247.648286 200.759373 448.405613 448.406636 448.405613 247.647263 0 448.405613-200.75835 448.405613-448.405613C959.167924 264.132726 758.409574 63.373353 510.762311 63.373353L510.762311 63.373353z" p-id="13060"></path></svg>